<svg xmlns="http://www.w3.org/2000/svg" width="820" height="855" fill="none"><g filter="url(#a)"><path fill="#2D314D" fill-rule="evenodd" d="M118 323c-36 0-54 44-29 70l135 134c18 19 44 29 70 29h71c27 0 52 11 71 30l161 161c19 18 44 29 71 29h388c73 0 109-88 58-139l-86-86c-20-20-6-53 21-53 28 0 42-33 22-53L876 250c-19-19-44-29-71-29H571c-27 0-52-11-71-29l-35-36c-19-18-44-29-71-29H159c-51 0-77 62-41 98l29 29c26 26 7 69-29 69Z" clip-rule="evenodd"/></g><path fill="url(#b)" fill-rule="evenodd" d="M256 16c-36 0-54 44-29 70l135 134c18 19 44 29 70 29h71c27 0 52 11 71 30l161 161c19 18 44 29 71 29h388c73 0 109-88 58-139l-86-86c-20-20-6-53 21-53 28 0 42-33 22-53L1014-57c-19-19-44-29-71-29H709c-27 0-52-11-71-29l-35-36c-19-18-44-29-71-29H297c-51 0-77 62-41 98l29 29c26 26 7 69-29 69Z" clip-rule="evenodd"/><defs><linearGradient id="b" x1="-455.9" x2="76.8" y1="143.1" y2="1155.3" gradientUnits="userSpaceOnUse"><stop stop-color="#33D35E"/><stop offset="1" stop-color="#2AB6D9"/></linearGradient><filter id="a" width="1214.6" height="803" x=".4" y="52" color-interpolation-filters="sRGB" filterUnits="userSpaceOnUse"><feFlood flood-opacity="0" result="BackgroundImageFix"/><feColorMatrix in="SourceAlpha" result="hardAlpha" values="0 0 0 0 0 0 0 0 0 0 0 0 0 0 0 0 0 0 127 0"/><feOffset dy="2"/><feGaussianBlur stdDeviation="38.5"/><feColorMatrix values="0 0 0 0 0 0 0 0 0 0 0 0 0 0 0 0 0 0 0.0240111 0"/><feBlend in2="BackgroundImageFix" result="effect1_dropShadow_242_2"/><feBlend in="SourceGraphic" in2="effect1_dropShadow_242_2" result="shape"/></filter></defs></svg>